<?xml version="1.0" encoding="utf-8"?>
<!-- Generator: Adobe Illustrator 21.0.0, SVG Export Plug-In . SVG Version: 6.00 Build 0)  -->
<svg version="1.1" id="Layer_1" xmlns="http://www.w3.org/2000/svg" xmlns:xlink="http://www.w3.org/1999/xlink" x="0px" y="0px"
	 viewBox="0 0 516.2 219" style="enable-background:new 0 0 516.2 219;" xml:space="preserve">
<style type="text/css">
	.st0{fill:#FFFFFF;}
	.st1{font-family:'Neon80s';}
	.st2{font-size:112.7824px;}
	.st3{letter-spacing:-3;}
	.st4{fill:#FFFFFF;stroke:#FFFFFF;stroke-width:7.4285;stroke-linecap:round;stroke-linejoin:round;stroke-miterlimit:10;}
	.st5{fill:none;stroke:#000000;stroke-width:5.7837;stroke-linecap:round;stroke-linejoin:round;stroke-miterlimit:10;}
</style>
<text transform="matrix(1 0 0 1.09 121.665 148.3237)" class="st0 st1 st2 st3">toolbox</text>
<path class="st4" d="M25.7,89.1v42c13.4,7.5,26.8,15,40.2,22.6c13.3-7.8,26.6-15.7,39.9-23.5v-41l-40-24.6L25.7,89.1z"/>
<path class="st5" d="M34.6,93.6v32.7c10.4,5.9,20.9,11.7,31.3,17.6c10.4-6.1,20.7-12.2,31.1-18.3V93.6L65.8,74.4L34.6,93.6z"/>
<path class="st5" d="M34.6,93.6l31.2,17.8l31.2-17.8l-31.2,17.8c0,10.8,0.1,21.6,0.1,32.4"/>
</svg>
